<?xml version="1.0" encoding="utf-8"?>
<!-- Generator: Adobe Illustrator 16.0.0, SVG Export Plug-In . SVG Version: 6.00 Build 0)  -->
<!DOCTYPE svg PUBLIC "-//W3C//DTD SVG 1.1//EN" "http://www.w3.org/Graphics/SVG/1.1/DTD/svg11.dtd">
<svg version="1.1" id="Layer_1" xmlns="http://www.w3.org/2000/svg" xmlns:xlink="http://www.w3.org/1999/xlink" x="0px" y="0px"
	 width="223px" height="500px" viewBox="0 0 223 500" enable-background="new 0 0 223 500" xml:space="preserve">
<g id="XMLID_196_">
	<path id="path3688_3_" fill="#04954A" d="M105.128,242.673c-44.6,0-60.21-8.92-76.138-3.823c-7.646,2.548-6.69,13.062,0,14.972
		C44.281,257.965,55.432,250,104.491,250c6.053,0,14.336,8.92,29.946,8.92c27.396,0,64.67-4.142,64.67-12.743
		c0-8.283-48.104-6.372-74.546-6.372C113.412,239.806,110.544,242.673,105.128,242.673L105.128,242.673L105.128,242.673z"/>
	<g id="XMLID_191_">
		<path id="path3642_3_" fill="#04954A" d="M153.551,264.654c0-9.238,8.92-73.59,3.824-96.846c-2.23-9.876-13.062-8.602-14.974,0
			c-4.778,21.663,3.823,41.414,3.823,97.482c0,7.646-6.053,7.965-9.238,17.84c-2.867,8.602,1.273,56.069,2.548,56.069
			c1.593,0,0.638-41.096,3.505-41.096s1.273,40.776,3.186,41.096c1.911,0.637,0.637-41.096,3.822-41.096
			c3.504,0,1.274,41.096,2.867,41.096c1.912,0,1.274-41.096,4.142-41.096s1.274,41.096,2.867,41.096
			c2.229,0,5.097-44.919,3.505-54.157C161.834,275.486,153.551,273.893,153.551,264.654z"/>
		<path id="path3686_4_" fill="#04954A" d="M74.546,233.434c0,56.387-8.92,79.005-3.823,99.076c2.549,9.558,13.062,8.283,14.973,0
			c4.141-19.114-3.823-43.963-3.823-99.076c0-6.371,15.928-5.416,15.928-27.397c0-27.397-10.194-45.556-20.07-45.556
			c-9.239,0-18.796,20.07-18.796,45.556C59.254,227.063,74.546,228.337,74.546,233.434z"/>
	</g>
</g>
</svg>
