<?xml version="1.0" encoding="utf-8"?>
<!-- Generator: Adobe Illustrator 19.0.0, SVG Export Plug-In . SVG Version: 6.00 Build 0)  -->
<svg version="1.1" id="Layer_1" xmlns="http://www.w3.org/2000/svg" xmlns:xlink="http://www.w3.org/1999/xlink" x="0px" y="0px"
	 viewBox="0 0 70 70" style="enable-background:new 0 0 70 70;" xml:space="preserve">
<style type="text/css">
	.st0{fill:#EF4438;}
</style>
<g id="XMLID_196_">
	<path id="path3688_3_" class="st0" d="M33,32.7c-14,0-18.9-2.8-23.9-1.2c-2.4,0.8-2.1,4.1,0,4.7c4.8,1.3,8.3-1.2,23.7-1.2
		c1.9,0,4.5,2.8,9.4,2.8c8.6,0,20.3-1.3,20.3-4c0-2.6-15.1-2-23.4-2C35.6,31.8,34.7,32.7,33,32.7L33,32.7L33,32.7z"/>
	<g id="XMLID_191_">
		<path id="path3642_3_" class="st0" d="M48.2,39.6c0-2.9,2.8-23.1,1.2-30.4c-0.7-3.1-4.1-2.7-4.7,0c-1.5,6.8,1.2,13,1.2,30.6
			c0,2.4-1.9,2.5-2.9,5.6C42.1,48.1,43.4,63,43.8,63c0.5,0,0.2-12.9,1.1-12.9c0.9,0,0.4,12.8,1,12.9c0.6,0.2,0.2-12.9,1.2-12.9
			c1.1,0,0.4,12.9,0.9,12.9c0.6,0,0.4-12.9,1.3-12.9c0.9,0,0.4,12.9,0.9,12.9c0.7,0,1.6-14.1,1.1-17C50.8,43,48.2,42.5,48.2,39.6z"
			/>
		<path id="path3686_4_" class="st0" d="M23.4,29.8c0,17.7-2.8,24.8-1.2,31.1c0.8,3,4.1,2.6,4.7,0c1.3-6-1.2-13.8-1.2-31.1
			c0-2,5-1.7,5-8.6c0-8.6-3.2-14.3-6.3-14.3c-2.9,0-5.9,6.3-5.9,14.3C18.6,27.8,23.4,28.2,23.4,29.8z"/>
	</g>
</g>
</svg>
