<?xml version="1.0" encoding="utf-8"?>
<!-- Generator: Adobe Illustrator 16.0.0, SVG Export Plug-In . SVG Version: 6.00 Build 0)  -->
<!DOCTYPE svg PUBLIC "-//W3C//DTD SVG 1.1//EN" "http://www.w3.org/Graphics/SVG/1.1/DTD/svg11.dtd">
<svg version="1.1" id="Layer_1" xmlns="http://www.w3.org/2000/svg" xmlns:xlink="http://www.w3.org/1999/xlink" x="0px" y="0px"
	 width="70px" height="70px" viewBox="0 0 70 70" enable-background="new 0 0 70 70" xml:space="preserve">
<g id="XMLID_196_">
	<path id="path3688_3_" fill="#02954A" d="M32.575,32.209c-17.353,0-23.426-3.47-29.624-1.487c-2.975,0.991-2.603,5.082,0,5.828
		c5.949,1.61,10.287-1.489,29.376-1.489c2.354,0,5.579,3.471,11.652,3.471c10.66,0,25.162-1.612,25.162-4.959
		c0-3.223-18.718-2.479-29.005-2.479C35.798,31.094,34.682,32.209,32.575,32.209L32.575,32.209L32.575,32.209z"/>
	<g id="XMLID_191_">
		<path id="path3642_3_" fill="#02954A" d="M51.417,40.763c0-3.595,3.471-28.633,1.487-37.681c-0.869-3.843-5.083-3.348-5.826,0
			c-1.858,8.428,1.487,16.113,1.487,37.93c0,2.974-2.354,3.098-3.593,6.939c-1.115,3.348,0.495,21.816,0.99,21.816
			c0.62,0,0.249-15.989,1.364-15.989c1.116,0,0.494,15.865,1.238,15.989c0.745,0.247,0.248-15.989,1.489-15.989
			c1.362,0,0.494,15.989,1.114,15.989c0.745,0,0.495-15.989,1.611-15.989c1.114,0,0.495,15.989,1.114,15.989
			c0.868,0,1.984-17.478,1.365-21.072C54.641,44.977,51.417,44.356,51.417,40.763z"/>
		<path id="path3686_4_" fill="#02954A" d="M20.676,28.615c0,21.94-3.471,30.742-1.488,38.549c0.992,3.719,5.082,3.222,5.827,0
			c1.61-7.438-1.488-17.105-1.488-38.549c0-2.479,6.197-2.107,6.197-10.66c0-10.659-3.966-17.725-7.808-17.725
			c-3.595,0-7.313,7.81-7.313,17.725C14.727,26.136,20.676,26.632,20.676,28.615z"/>
	</g>
</g>
</svg>
